<?xml version="1.0" standalone="no"?><!-- Generator: Gravit.io --><svg xmlns="http://www.w3.org/2000/svg" xmlns:xlink="http://www.w3.org/1999/xlink" style="isolation:isolate" width="16" height="16"><g style="isolation:isolate"><circle vector-effect="non-scaling-stroke" cx="0" cy="0" r="1" fill="rgb(93,93,93)" transform="matrix(7.999999999999998,0,0,7.999999999999998,8,8)" stroke-width="1" stroke="rgba(0,0,0,0)"/><path d=" M 5.3662109375 7.2900390625 Q 5.2978515625 7.802734375 5.23681640625 8.31298828125 Q 5.17578125 8.8232421875 5.1611328125 9.267578125 Q 5.1611328125 9.4580078125 5.1904296875 9.5849609375 Q 5.2197265625 9.7119140625 5.27587890625 9.78515625 Q 5.33203125 9.8583984375 5.41015625 9.89013671875 Q 5.48828125 9.921875 5.5859375 9.921875 Q 5.7421875 9.921875 5.927734375 9.87548828125 Q 6.11328125 9.8291015625 6.298828125 9.755859375 Q 6.357421875 9.7314453125 6.39892578125 9.71923828125 Q 6.4404296875 9.70703125 6.4697265625 9.70703125 Q 6.5185546875 9.70703125 6.53564453125 9.7509765625 Q 6.552734375 9.794921875 6.56982421875 9.90478515625 Q 6.5869140625 10.0146484375 6.62109375 10.2001953125 Q 6.6552734375 10.3857421875 6.7333984375 10.6689453125 Q 6.73828125 10.693359375 6.74072265625 10.71044921875 Q 6.7431640625 10.7275390625 6.7431640625 10.7421875 Q 6.7431640625 10.810546875 6.69189453125 10.83984375 Q 6.640625 10.869140625 6.5234375 10.908203125 Q 6.3232421875 10.9765625 6.10107421875 11.04736328125 Q 5.87890625 11.1181640625 5.66162109375 11.1767578125 Q 5.4443359375 11.2353515625 5.244140625 11.27197265625 Q 5.0439453125 11.30859375 4.892578125 11.30859375 Q 4.0771484375 11.30859375 3.70361328125 10.9033203125 Q 3.330078125 10.498046875 3.330078125 9.66796875 Q 3.330078125 9.5263671875 3.33984375 9.37744140625 Q 3.349609375 9.228515625 3.3642578125 9.0673828125 Q 3.4130859375 8.5791015625 3.44970703125 8.14208984375 Q 3.486328125 7.705078125 3.525390625 7.3046875 L 3.0126953125 7.3046875 Q 2.7490234375 7.3046875 2.6318359375 7.28271484375 Q 2.5146484375 7.2607421875 2.5146484375 7.1923828125 Q 2.5146484375 7.1728515625 2.5634765625 7.08740234375 Q 2.6123046875 7.001953125 2.68798828125 6.88232421875 Q 2.763671875 6.7626953125 2.8515625 6.6259765625 Q 2.939453125 6.4892578125 3.02001953125 6.36962890625 Q 3.1005859375 6.25 3.1591796875 6.162109375 Q 3.2177734375 6.07421875 3.232421875 6.0546875 L 3.5791015625 6.0546875 Q 3.623046875 5.68359375 3.64990234375 5.43212890625 Q 3.6767578125 5.1806640625 3.69384765625 5.0146484375 Q 3.7109375 4.8486328125 3.7255859375 4.75830078125 Q 3.740234375 4.66796875 3.75732421875 4.6240234375 Q 3.7744140625 4.580078125 3.80126953125 4.56787109375 Q 3.828125 4.5556640625 3.8720703125 4.5458984375 Q 4.091796875 4.501953125 4.296875 4.46533203125 Q 4.501953125 4.4287109375 4.70703125 4.3896484375 Q 4.912109375 4.3505859375 5.12451171875 4.29931640625 Q 5.3369140625 4.248046875 5.56640625 4.1796875 Q 5.5810546875 4.1796875 5.5859375 4.17724609375 Q 5.5908203125 4.1748046875 5.60546875 4.1748046875 Q 5.6640625 4.1748046875 5.6640625 4.2138671875 L 5.6640625 4.2236328125 Q 5.6396484375 4.4921875 5.58837890625 4.970703125 Q 5.537109375 5.44921875 5.4736328125 6.0546875 L 6.7822265625 6.0546875 Q 6.8212890625 6.0546875 6.85791015625 6.08154296875 Q 6.89453125 6.1083984375 6.89453125 6.171875 Q 6.89453125 6.1962890625 6.8359375 6.34765625 Q 6.77734375 6.4990234375 6.669921875 6.7431640625 L 6.494140625 7.138671875 Q 6.4599609375 7.2119140625 6.42333984375 7.24609375 Q 6.38671875 7.2802734375 6.2744140625 7.2900390625 L 5.3662109375 7.2900390625 Z  M 9.9267578125 7.2900390625 Q 9.8583984375 7.802734375 9.79736328125 8.31298828125 Q 9.736328125 8.8232421875 9.7216796875 9.267578125 Q 9.7216796875 9.4580078125 9.7509765625 9.5849609375 Q 9.7802734375 9.7119140625 9.83642578125 9.78515625 Q 9.892578125 9.8583984375 9.970703125 9.89013671875 Q 10.048828125 9.921875 10.146484375 9.921875 Q 10.302734375 9.921875 10.48828125 9.87548828125 Q 10.673828125 9.8291015625 10.859375 9.755859375 Q 10.91796875 9.7314453125 10.95947265625 9.71923828125 Q 11.0009765625 9.70703125 11.0302734375 9.70703125 Q 11.0791015625 9.70703125 11.09619140625 9.7509765625 Q 11.11328125 9.794921875 11.13037109375 9.90478515625 Q 11.1474609375 10.0146484375 11.181640625 10.2001953125 Q 11.2158203125 10.3857421875 11.2939453125 10.6689453125 Q 11.298828125 10.693359375 11.30126953125 10.71044921875 Q 11.3037109375 10.7275390625 11.3037109375 10.7421875 Q 11.3037109375 10.810546875 11.25244140625 10.83984375 Q 11.201171875 10.869140625 11.083984375 10.908203125 Q 10.8837890625 10.9765625 10.66162109375 11.04736328125 Q 10.439453125 11.1181640625 10.22216796875 11.1767578125 Q 10.0048828125 11.2353515625 9.8046875 11.27197265625 Q 9.6044921875 11.30859375 9.453125 11.30859375 Q 8.6376953125 11.30859375 8.26416015625 10.9033203125 Q 7.890625 10.498046875 7.890625 9.66796875 Q 7.890625 9.5263671875 7.900390625 9.37744140625 Q 7.91015625 9.228515625 7.9248046875 9.0673828125 Q 7.9736328125 8.5791015625 8.01025390625 8.14208984375 Q 8.046875 7.705078125 8.0859375 7.3046875 L 7.5732421875 7.3046875 Q 7.3095703125 7.3046875 7.1923828125 7.28271484375 Q 7.0751953125 7.2607421875 7.0751953125 7.1923828125 Q 7.0751953125 7.1728515625 7.1240234375 7.08740234375 Q 7.1728515625 7.001953125 7.24853515625 6.88232421875 Q 7.32421875 6.7626953125 7.412109375 6.6259765625 Q 7.5 6.4892578125 7.58056640625 6.36962890625 Q 7.6611328125 6.25 7.7197265625 6.162109375 Q 7.7783203125 6.07421875 7.79296875 6.0546875 L 8.1396484375 6.0546875 Q 8.18359375 5.68359375 8.21044921875 5.43212890625 Q 8.2373046875 5.1806640625 8.25439453125 5.0146484375 Q 8.271484375 4.8486328125 8.2861328125 4.75830078125 Q 8.30078125 4.66796875 8.31787109375 4.6240234375 Q 8.3349609375 4.580078125 8.36181640625 4.56787109375 Q 8.388671875 4.5556640625 8.4326171875 4.5458984375 Q 8.65234375 4.501953125 8.857421875 4.46533203125 Q 9.0625 4.4287109375 9.267578125 4.3896484375 Q 9.47265625 4.3505859375 9.68505859375 4.29931640625 Q 9.8974609375 4.248046875 10.126953125 4.1796875 Q 10.1416015625 4.1796875 10.146484375 4.17724609375 Q 10.1513671875 4.1748046875 10.166015625 4.1748046875 Q 10.224609375 4.1748046875 10.224609375 4.2138671875 L 10.224609375 4.2236328125 Q 10.2001953125 4.4921875 10.14892578125 4.970703125 Q 10.09765625 5.44921875 10.0341796875 6.0546875 L 11.3427734375 6.0546875 Q 11.3818359375 6.0546875 11.41845703125 6.08154296875 Q 11.455078125 6.1083984375 11.455078125 6.171875 Q 11.455078125 6.1962890625 11.396484375 6.34765625 Q 11.337890625 6.4990234375 11.23046875 6.7431640625 L 11.0546875 7.138671875 Q 11.0205078125 7.2119140625 10.98388671875 7.24609375 Q 10.947265625 7.2802734375 10.8349609375 7.2900390625 L 9.9267578125 7.2900390625 Z " fill-rule="evenodd" fill="rgb(255,255,255)" stroke-width="1" stroke="rgba(0,0,0,0)" stroke-linejoin="miter" stroke-linecap="square"/></g></svg>